PathFileType	4	(X/Y/Z)	Walk8.trc
DataRate	CameraRate	NumFrames	NumMarkers	Units	OrigDataRate	OrigDataStartFrame	OrigNumFrames
200.000000	200.000000	7	59	mm	200.000000	301	515
Frame#	Times		RFHD		RACR1		RUA1		RFA1		RWRR		LACR1		LFA1		LWRU		RTH1		LTH4		CLAV		RWRU		LTH2		LFHD		LUA1		RBack		RCAR		LTH3		RElbow		T10		LASI		C7		LTH1		LLFC		LWRR		LTB2		STRN		LMT1		LTB4		LBHD		RTB1		RTH4		LMMAL		LTB1		LElbowM		LCAL		LCAR		RTH2		RPSI		LElbow		RBHD		LTB3		RTH3		LMT5		RLFC		RElbowM		RTB2		RTB4		LPSI		RMT1		RTB3		LLMAL		RASI		RCAL		RLMAL		RToe		LToe		RMMAL		RMT5
			X1	Y1	Z1	X2	Y2	Z2	X3	Y3	Z3	X4	Y4	Z4	X5	Y5	Z5	X6	Y6	Z6	X7	Y7	Z7	X8	Y8	Z8	X9	Y9	Z9	X10	Y10	Z10	X11	Y11	Z11	X12	Y12	Z12	X13	Y13	Z13	X14	Y14	Z14	X15	Y15	Z15	X16	Y16	Z16	X17	Y17	Z17	X18	Y18	Z18	X19	Y19	Z19	X20	Y20	Z20	X21	Y21	Z21	X22	Y22	Z22	X23	Y23	Z23	X24	Y24	Z24	X25	Y25	Z25	X26	Y26	Z26	X27	Y27	Z27	X28	Y28	Z28	X29	Y29	Z29	X30	Y30	Z30	X31	Y31	Z31	X32	Y32	Z32	X33	Y33	Z33	X34	Y34	Z34	X35	Y35	Z35	X36	Y36	Z36	X37	Y37	Z37	X38	Y38	Z38	X39	Y39	Z39	X40	Y40	Z40	X41	Y41	Z41	X42	Y42	Z42	X43	Y43	Z43	X44	Y44	Z44	X45	Y45	Z45	X46	Y46	Z46	X47	Y47	Z47	X48	Y48	Z48	X49	Y49	Z49	X50	Y50	Z50	X51	Y51	Z51	X52	Y52	Z52	X53	Y53	Z53	X54	Y54	Z54	X55	Y55	Z55	X56	Y56	Z56	X57	Y57	Z57	X58	Y58	Z58	X59	Y59	Z59

301	1.505	-353.09	1416.6	11.687	-444.69	1216.7	127.73	-430.75	1075.4	212.47	-340.05	841.58	246.14	-303.91	749.67	206.28	-434.19	1202.2	-239.3	-402.29	822.35	-343.76	-417.93	712.59	-366.72	-451	629.9	182.86	-418.38	568.25	-221.92	-369.17	1178.2	-49.248	-338.66	739.13	268.56	-369.02	586.59	-193.98	-338.4	1427.1	-83.563	-415.88	1032.8	-300.73	-563.43	1150.3	64.568	-279.26	696.62	257.33	-406.12	485.91	-192.34	-421.18	946.15	244.78	-601.92	1066.5	-41.213	-386.62	814.19	-188.77	-510.14	1265.5	-57.698	-431.2	651.19	-243.21	-372.01	399.39	-152.62	-370.94	711.78	-324.31	-378.89	213.11	-137.39	-321.03	1071	-46.845	-241.63	29.925	-65.31	-361.16	215.06	-77.778	-464.2	1350.8	-120.43	-505.17	270.63	86.137	-448.83	544.96	168.76	-395.92	73.332	-26.161	-350.13	302.1	-84.589	-484.87	898.33	-246.58	-458.83	41.711	-60.503	-380.43	662.8	-371.84	-392.46	552.1	149.11	-641.26	833.89	27.061	-455.62	916.6	-313	-482.81	1345	11.208	-364.25	132.14	-72.201	-443.07	460.14	149.9	-334.11	19.504	-126.11	-480.63	379.39	134.5	-469.79	908.92	173.12	-607.85	255.17	111.06	-578.69	225.22	66.011	-650.16	840.08	-80.084	-689.61	61.971	6.7046	-644.51	176.35	47.275	-415.58	56.903	-103.94	-385.62	818.96	122.74	-770.59	208.04	11.755	-731.51	175.79	67.159	-665.49	30.123	49.791	-292.31	33.888	-40.486	-700.59	169.98	-9.7812	-728.4	78.102	86.536
302	1.51	-346.92	1417.4	11.446	-439.07	1217.8	127.59	-425.74	1076.6	212.57	-335.82	842.26	246.46	-300.19	750.03	206.56	-427.88	1203	-239.36	-393.72	823.26	-343.23	-408.37	713.35	-366.06	-443.66	630.96	182.79	-414.62	568.38	-222.18	-363.22	1179.2	-49.271	-334.92	739.83	268.96	-364.9	586.26	-194.48	-332.09	1427.9	-83.8	-408.05	1033.7	-300.36	-557.61	1151.3	64.31	-275.81	696.7	257.48	-403.01	485.93	-192.53	-416.53	947.16	244.76	-595.89	1067.4	-41.347	-381.14	815.16	-189.07	-504.22	1266.3	-57.999	-426.8	651.48	-243.36	-369.51	399.11	-152.84	-361.68	712.99	-323.32	-377.78	212.9	-137.55	-315.18	1071.9	-47.002	-241.57	29.962	-65.32	-359.91	214.74	-77.978	-457.98	1351.8	-120.74	-492.96	271.89	86.281	-439.96	546.07	168.93	-395.78	73.361	-26.197	-348.14	301.71	-84.856	-477.67	898.93	-246.95	-458.83	41.79	-60.528	-370.4	663.88	-370.8	-383.66	554.08	149.26	-635.33	834.77	27.135	-447.89	917.29	-313.16	-476.76	1346.1	10.871	-363.65	131.86	-72.351	-432.63	461.24	150.25	-334.14	19.528	-126.16	-468.98	380.54	134.78	-464.88	910.22	172.83	-595.5	256.35	111.44	-566.58	226.44	66.277	-644.41	841.27	-79.975	-676.33	63.161	8.3839	-632.29	177.52	47.668	-415.56	56.975	-103.97	-379.6	819.53	122.54	-758.84	208.41	11.919	-719.28	176.99	67.621	-652.05	31.356	51.813	-292.36	33.951	-40.498	-688.38	170.8	-9.3341	-715.27	79.849	87.918
303	1.515	-340.76	1418.2	11.229	-433.48	1218.8	127.48	-420.76	1077.7	212.72	-331.57	842.91	246.82	-296.46	750.38	206.86	-421.64	1203.8	-239.41	-385.15	824.17	-342.69	-398.76	714.11	-365.39	-436.42	632.05	182.72	-410.9	568.5	-222.39	-357.28	1180.1	-49.257	-331.13	740.51	269.39	-360.82	585.93	-194.94	-325.81	1428.6	-84.013	-400.28	1034.5	-299.96	-551.82	1152.2	64.059	-272.31	696.8	257.65	-399.92	485.95	-192.67	-411.87	948.14	244.8	-589.87	1068.3	-41.468	-375.75	816.07	-189.38	-498.3	1267.1	-58.261	-422.47	651.74	-243.48	-367.01	398.82	-153.03	-352.37	714.23	-322.33	-376.65	212.69	-137.69	-309.34	1072.8	-47.047	-241.49	29.983	-65.335	-358.67	214.43	-78.149	-451.79	1352.7	-121.03	-480.67	273.22	86.359	-431.22	547.25	169.08	-395.62	73.389	-26.223	-346.15	301.32	-85.085	-470.49	899.48	-247.34	-458.83	41.885	-60.545	-360.31	665.02	-369.77	-375.02	556.09	149.38	-629.47	835.71	27.149	-440.18	917.96	-313.31	-470.72	1347.1	10.566	-363.05	131.59	-72.476	-422.36	462.44	150.55	-334.16	19.544	-126.21	-457.41	381.82	134.98	-459.99	911.46	172.64	-583.03	257.37	111.78	-554.26	227.57	66.509	-638.67	842.46	-79.906	-662.43	64.101	9.9573	-619.79	178.45	48.059	-415.52	57.055	-104	-373.62	820.14	122.43	-746.91	208.19	12.149	-706.73	177.73	68.105	-637.78	32.541	53.681	-292.4	34.009	-40.513	-675.88	171.24	-8.8763	-701.46	81.167	89.258
304	1.52	-334.62	1419	11.034	-427.92	1219.8	127.41	-415.8	1078.8	212.89	-327.3	843.53	247.22	-292.71	750.71	207.18	-415.45	1204.6	-239.45	-376.58	825.08	-342.14	-389.12	714.89	-364.73	-429.28	633.15	182.64	-407.2	568.6	-222.57	-351.35	1181	-49.21	-327.28	741.17	269.85	-356.79	585.6	-195.35	-319.55	1429.3	-84.205	-392.59	1035.3	-299.55	-546.04	1153.1	63.814	-268.76	696.9	257.83	-396.83	485.96	-192.78	-407.2	949.06	244.9	-583.86	1069.2	-41.583	-370.45	816.9	-189.7	-492.37	1267.9	-58.485	-418.17	651.97	-243.58	-364.51	398.53	-153.18	-343.03	715.5	-321.35	-375.51	212.49	-137.8	-303.5	1073.6	-46.981	-241.39	29.988	-65.355	-357.42	214.11	-78.291	-445.62	1353.5	-121.29	-468.31	274.59	86.386	-422.62	548.47	169.19	-395.46	73.416	-26.239	-344.17	300.92	-85.273	-463.35	899.99	-247.74	-458.82	41.994	-60.552	-350.16	666.22	-368.75	-366.52	558.13	149.48	-623.66	836.69	27.106	-432.49	918.61	-313.47	-464.68	1348.1	10.293	-362.43	131.32	-72.572	-412.26	463.72	150.79	-334.18	19.553	-126.26	-445.91	383.19	135.11	-455.11	912.63	172.57	-570.44	258.23	112.08	-541.76	228.6	66.719	-632.94	843.64	-79.881	-647.94	64.788	11.406	-607.03	179.13	48.454	-415.47	57.14	-104.02	-367.7	820.79	122.43	-734.8	207.37	12.45	-693.87	177.98	68.61	-622.75	33.654	55.375	-292.42	34.06	-40.528	-663.11	171.31	-8.4087	-687.01	82.05	90.537
305	1.525	-328.49	1419.8	10.859	-422.38	1220.7	127.37	-410.86	1079.9	213.09	-323	844.12	247.66	-288.94	751.03	207.52	-409.32	1205.3	-239.48	-368.01	826	-341.59	-379.44	715.68	-364.05	-422.23	634.24	182.57	-403.51	568.69	-222.7	-345.43	1181.8	-49.131	-323.39	741.81	270.34	-352.79	585.27	-195.73	-313.33	1430	-84.376	-384.97	1036	-299.13	-540.28	1153.9	63.576	-265.15	697.02	258.05	-393.73	485.98	-192.86	-402.51	949.95	245.06	-577.85	1070	-41.694	-365.24	817.67	-190.01	-486.43	1268.7	-58.674	-413.88	652.16	-243.65	-361.99	398.24	-153.3	-333.67	716.79	-320.38	-374.35	212.29	-137.88	-297.65	1074.5	-46.807	-241.28	29.977	-65.377	-356.15	213.79	-78.403	-439.47	1354.4	-121.52	-455.89	275.98	86.372	-414.14	549.71	169.27	-395.28	73.441	-26.245	-342.18	300.52	-85.42	-456.24	900.45	-248.15	-458.79	42.12	-60.55	-339.95	667.48	-367.76	-358.15	560.17	149.57	-617.92	837.73	27.007	-424.82	919.23	-313.64	-458.66	1349	10.053	-361.81	131.06	-72.64	-402.3	465.05	150.97	-334.19	19.558	-126.3	-434.48	384.64	135.17	-450.25	913.73	172.61	-557.77	258.92	112.34	-529.08	229.5	66.912	-627.21	844.8	-79.902	-632.9	65.227	12.718	-594	179.55	48.851	-415.4	57.232	-104.03	-361.82	821.47	122.51	-722.5	205.97	12.823	-680.71	177.76	69.133	-607	34.674	56.881	-292.43	34.102	-40.545	-650.07	171.01	-7.9338	-671.96	82.5	91.744
306	1.53	-322.39	1420.6	10.704	-416.85	1221.6	127.36	-405.93	1080.9	213.32	-318.67	844.68	248.12	-285.14	751.33	207.89	-403.23	1206	-239.5	-359.45	826.91	-341.03	-369.75	716.48	-363.37	-415.26	635.32	182.5	-399.81	568.76	-222.8	-339.52	1182.6	-49.023	-319.44	742.42	270.87	-348.81	584.94	-196.05	-307.14	1430.7	-84.528	-377.45	1036.8	-298.7	-534.53	1154.7	63.344	-261.48	697.16	258.3	-390.61	485.99	-192.9	-397.79	950.8	245.26	-571.86	1070.8	-41.806	-360.1	818.38	-190.32	-480.49	1269.4	-58.83	-409.59	652.32	-243.68	-359.44	397.94	-153.39	-324.29	718.11	-319.41	-373.15	212.09	-137.93	-291.81	1075.3	-46.527	-241.15	29.952	-65.4	-354.88	213.47	-78.485	-433.34	1355.2	-121.72	-443.42	277.39	86.322	-405.77	550.96	169.32	-395.09	73.466	-26.239	-340.18	300.11	-85.527	-449.16	900.87	-248.57	-458.75	42.261	-60.537	-329.71	668.79	-366.77	-349.93	562.22	149.64	-612.23	838.81	26.856	-417.18	919.83	-313.8	-452.64	1350	9.8435	-361.17	130.79	-72.679	-392.49	466.43	151.1	-334.2	19.559	-126.34	-423.12	386.14	135.17	-445.4	914.77	172.75	-545	259.43	112.57	-516.23	230.27	67.088	-621.49	845.96	-79.969	-617.33	65.423	13.889	-580.73	179.72	49.249	-415.32	57.329	-104.05	-355.98	822.19	122.68	-710.01	204	13.267	-667.27	177.07	69.671	-590.61	35.587	58.193	-292.43	34.137	-40.561	-636.78	170.35	-7.4554	-656.34	82.526	92.87
307	1.535	-316.3	1421.3	10.568	-411.32	1222.4	127.37	-401	1081.9	213.56	-314.32	845.22	248.61	-281.31	751.62	208.29	-397.19	1206.6	-239.51	-350.9	827.83	-340.47	-360.04	717.3	-362.68	-408.39	636.37	182.44	-396.09	568.82	-222.85	-333.61	1183.4	-48.89	-315.45	743.01	271.42	-344.84	584.6	-196.34	-300.98	1431.4	-84.661	-370.02	1037.5	-298.28	-528.79	1155.4	63.12	-257.76	697.31	258.6	-387.46	486.01	-192.9	-393.05	951.61	245.5	-565.88	1071.5	-41.921	-355.01	819.03	-190.64	-474.53	1270.2	-58.955	-405.28	652.46	-243.69	-356.86	397.65	-153.44	-314.89	719.47	-318.45	-371.93	211.9	-137.96	-285.95	1076	-46.146	-241.01	29.913	-65.424	-353.58	213.15	-78.541	-427.24	1355.9	-121.89	-430.91	278.78	86.239	-397.52	552.2	169.34	-394.88	73.489	-26.222	-338.16	299.7	-85.598	-442.12	901.25	-249	-458.7	42.419	-60.515	-319.43	670.16	-365.79	-341.82	564.28	149.71	-606.59	839.92	26.657	-409.57	920.4	-313.96	-446.62	1350.8	9.6648	-360.52	130.53	-72.691	-382.81	467.84	151.18	-334.2	19.558	-126.37	-411.84	387.67	135.12	-440.56	915.74	172.98	-532.16	259.75	112.76	-503.22	230.91	67.248	-615.77	847.1	-80.081	-601.28	65.385	14.918	-567.23	179.64	49.639	-415.22	57.431	-104.05	-350.19	822.93	122.92	-697.3	201.49	13.775	-653.55	175.91	70.22	-573.61	36.38	59.313	-292.41	34.162	-40.577	-623.23	169.35	-6.9782	-640.2	82.143	93.908
